<?xml version="1.0" encoding="utf-8"?>
<!-- Generator: Adobe Illustrator 24.2.1, SVG Export Plug-In . SVG Version: 6.00 Build 0)  -->
<svg version="1.1" id="Capa_1" xmlns="http://www.w3.org/2000/svg" xmlns:xlink="http://www.w3.org/1999/xlink" x="0px" y="0px"
	 viewBox="0 0 821.4 817.3" style="enable-background:new 0 0 821.4 817.3;" xml:space="preserve">
<style type="text/css">
	.st0{fill:#FFFFFF;}
</style>
<path class="st0" d="M472.1,393.8c-4.1,0-7.5,3.4-7.5,7.5v45.9c0,63.8-51.9,115.8-115.8,115.8c-63.8,0-115.8-51.9-115.8-115.8v-45.9
	c0-4.1-3.4-7.5-7.5-7.5c-4.1,0-7.5,3.4-7.5,7.5v45.9c0,62.5,44.1,114.9,102.8,127.7l-4.7,35.2h-31.6c-20.3,0-36.9,16.6-36.9,36.9
	c0,9.7,7.9,17.5,17.5,17.5h167.5c9.7,0,17.5-7.9,17.5-17.5c0-20.3-16.6-36.9-36.9-36.9h-31.6l-4.7-35.2
	c58.7-12.9,102.8-65.3,102.8-127.7v-45.9C479.6,397.2,476.3,393.8,472.1,393.8z"/>
<path class="st0" d="M669.9,152.6L669.9,152.6H524.1c-32.8,0-59.5,26.7-59.5,59.5v2.2v11.5V272h0v2.6c0,27.7,18.8,51.6,45.8,57.9
	c3.5,0.8,6.1,4.2,6.1,8v45.7c0,11.8,15.2,16.8,22.1,7.2l40.6-55.9c1.5-2.1,4-3.4,6.7-3.4h83.9c32.8,0,59.5-26.7,59.5-59.5v-62.4
	C729.3,179.3,702.7,152.6,669.9,152.6z M676.7,275.3h-150h0c-4.1,0-7.5-3.4-7.5-7.5c0-4.1,3.4-7.5,7.5-7.5h150
	c4.1,0,7.5,3.4,7.5,7.5C684.2,271.9,680.8,275.3,676.7,275.3z M676.7,218.5h-150h0c-4.1,0-7.5-3.4-7.5-7.5s3.4-7.5,7.5-7.5h150
	c4.1,0,7.5,3.4,7.5,7.5S680.8,218.5,676.7,218.5z"/>
<path class="st0" d="M348.9,227.6c-52.2,0-94.7,42.5-94.7,94.7v122.6h0c0,1,0,1.9,0,2.9c0,0.1,0,0.2,0,0.3c0,0.9,0.1,1.7,0.1,2.6
	c0,0.1,0,0.2,0,0.3c0.8,12,3.7,23.4,8.6,33.8c0,0.1,0.1,0.1,0.1,0.2c0.4,0.8,0.7,1.5,1.1,2.3c0.1,0.1,0.1,0.2,0.2,0.3
	c6.3,12.5,15.4,23.5,26.4,32c0,0,0,0,0,0c0.1,0,0.1,0.1,0.2,0.1c0.9,0.7,1.8,1.4,2.8,2.1c0.1,0.1,0.2,0.1,0.3,0.2
	c0.9,0.6,1.8,1.2,2.6,1.8c0.3,0.2,0.7,0.4,1,0.6c0.8,0.5,1.5,1,2.3,1.4c0.5,0.3,1.1,0.6,1.6,0.9c0.3,0.1,0.5,0.3,0.8,0.4
	c9.9,5.6,20.7,9.4,32,11.1c0.4,0.1,0.9,0.1,1.4,0.2c0.8,0.1,1.7,0.2,2.5,0.3c0.7,0.1,1.4,0.2,2.1,0.2c0.4,0,0.8,0.1,1.2,0.1
	c1.1,0.1,2.1,0.1,3.2,0.2c0.3,0,0.6,0,0.8,0c1.2,0,2.3,0.1,3.5,0.1c0,0,0,0,0,0c0,0,0,0,0,0c0,0,0.1,0,0.1,0
	c52.2-0.1,94.5-42.4,94.6-94.6c0,0,0-0.1,0-0.1c0-18.3,0-107.2,0-122.6C443.6,270.1,401.1,227.6,348.9,227.6z"/>
</svg>
